<?xml version="1.0" standalone="no"?>
<!DOCTYPE svg PUBLIC "-//W3C//DTD SVG 20010904//EN"
 "http://www.w3.org/TR/2001/REC-SVG-20010904/DTD/svg10.dtd">
<svg version="1.0" xmlns="http://www.w3.org/2000/svg"
 width="200.000000pt" height="200.000000pt" viewBox="0 0 200.000000 200.000000"
 preserveAspectRatio="xMidYMid meet">
<metadata>
Created by potrace 1.14, written by Peter Selinger 2001-2017
</metadata>
<g transform="translate(0.000000,200.000000) scale(0.100000,-0.100000)"
fill="#000000" stroke="none">
<path d="M720 1306 c-159 -80 -135 -317 37 -361 45 -11 48 -15 54 -49 7 -43
31 -78 81 -119 31 -25 46 -29 100 -30 69 -1 110 15 152 60 33 35 54 98 49 148
-6 81 -94 174 -164 175 -23 0 -27 5 -33 38 -20 124 -162 195 -276 138z"/>
</g>
</svg>
